<?xml version="1.0" encoding="UTF-8"?>
<svg xmlns="http://www.w3.org/2000/svg" viewBox="0 0 800 600" width="800" height="600">
  <defs>
    <linearGradient id="grad" x1="0%" y1="0%" x2="100%" y2="100%">
      <stop offset="0%" style="stop-color:#1e3a5f"/>
      <stop offset="100%" style="stop-color:#2a4a6f"/>
    </linearGradient>
  </defs>
  <rect width="800" height="600" fill="#1e3a5f"/>
  
  
        <ellipse cx="400" cy="360" rx="210" ry="100" fill="#333"/>
        <ellipse cx="400" cy="360" rx="180" ry="75" fill="#444"/>
        <g opacity="0.3">
          <rect x="280" y="340" width="20" height="40" rx="3" fill="#222"/><rect x="315" y="340" width="20" height="40" rx="3" fill="#222"/><rect x="350" y="340" width="20" height="40" rx="3" fill="#222"/><rect x="385" y="340" width="20" height="40" rx="3" fill="#222"/><rect x="420" y="340" width="20" height="40" rx="3" fill="#222"/><rect x="455" y="340" width="20" height="40" rx="3" fill="#222"/><rect x="490" y="340" width="20" height="40" rx="3" fill="#222"/><rect x="525" y="340" width="20" height="40" rx="3" fill="#222"/>
        </g>
      
  <text x="400" y="80" text-anchor="middle" fill="#c8a96e" font-family="system-ui, sans-serif" font-size="18" font-weight="600" letter-spacing="4">JFF</text>
  <text x="400" y="110" text-anchor="middle" fill="#c8a96e" font-family="system-ui, sans-serif" font-size="11" opacity="0.6" letter-spacing="2">BOTTOM</text>
  <text x="400" y="540" text-anchor="middle" fill="#c8a96e" font-family="system-ui, sans-serif" font-size="10" opacity="0.4">jff-008</text>
</svg>